<svg id="sprites" xmlns="http://www.w3.org/2000/svg" version="1.1" viewBox="0 0 512 512">
  <defs>
    <style>
      <![CDATA[
      .icon { display: none; }
      .icon:target { display: inline; }
      ]]>
    </style>
  </defs>
  <g id="youtube" class="icon">
    <path d="M509.5,153.2c0-45-33.1-81.2-74-81.2-55.4-2.6-111.9-3.6-169.6-3.6h-18c-57.6,0-114.2,1-169.6,3.6-40.8,0-73.9,36.4-73.9,81.4-2.5,35.6-3.6,71.2-3.5,106.8-.1,35.6,1,71.2,3.4,106.9,0,45,33.1,81.5,73.9,81.5,58.2,2.7,117.9,3.9,178.6,3.8,60.8.2,120.3-1.1,178.6-3.8,40.9,0,74-36.5,74-81.5,2.4-35.7,3.5-71.3,3.4-107,.2-35.6-.9-71.2-3.3-106.9h0ZM207.9,358.3v-196.5l145,98.2-145,98.3Z"/>
  </g>
  <g id="x" class="icon">
    <path d="M382.6,59h66.9l-146.8,167.2,171.6,226.8h-134.6l-105.4-137.8-120.7,137.8H46.6l155.6-178.8L37.8,59h138l95.2,125.9,111.5-125.9h.1ZM359.2,413.7h37.1L156.3,96.8h-39.8l242.7,316.9Z"/>
  </g>
  <g id="walk" class="icon">
    <path style="stroke-linejoin: round;stroke: currentColor;stroke-linecap: round;stroke-width: 32px" d="M320.4,480.2l-56.4-114-44.6-57c-6.6-11.2-10.1-23.9-10.1-36.9v-128.4h15.6c22.1,0,40,17.9,40,40v182.2"/>
    <path style="stroke-linejoin: round;stroke: currentColor;stroke-linecap: round;stroke-width: 32px;fill: none;" d="M135.2,292v-74.1s37-74.1,74.1-74.1"/>
    <path d="M376,292c-3.7,0-7.2-1.1-10.3-3.1l-60.1-38.7c-6-3.9-9.7-10.6-9.7-17.8v-23.7c0-3.1,2.5-5.7,5.6-5.7s2.1.3,3,.9l81.6,54.1c8.5,5.7,10.8,17.2,5.1,25.7-3.4,5.2-9.2,8.3-15.4,8.2h.2Z"/>
    <path d="M179.8,493.7c-5.8,0-11.3-2.7-14.8-7.4-6.1-8.2-4-17.2,3.7-25.9l59.9-74.7c3.3-2.5,7.9-1.8,10.4,1.5.1.2.3.4.4.6,1.6,2.5,3.4,5.6,5.2,9.1,5.2,10,6,16.1-1.7,25.7-8,10-52,67.4-52,67.4-2.6,3-7.2,3.7-11.1,3.7h0Z"/>
    <circle style="stroke-width: 16px;stroke-linejoin: round;stroke: currentColor;stroke-linecap: round" cx="264.9" cy="69.8" r="37"/>
  </g>
  <g id="tumblr" class="icon">
    <path d="M390.8,36.5H120.8c-49.2,0-88,38.8-88,88v270c0,49.2,38.8,90,88,90h270c49.2,0,90-40.8,90-90V124.5c0-49.2-40.8-88-90-88ZM336.8,400.5h-52c-42.5,0-72-23.7-72-76v-80h-36v-48c42.5-11,57.9-48.3,60-80h44v72h52v56h-52l-.4,70.5c0,21.9,11,29.4,28.6,29.4h27.8v56.1Z"/>
  </g>
  <g id="tiktok" class="icon">
    <path d="M413.1,123.1c-3.2-1.7-6.4-3.5-9.5-5.5-8.9-5.9-17-12.8-24.3-20.6-18.1-20.7-24.9-41.7-27.4-56.4h.1c-2.1-12.2-1.2-20.1-1.1-20.1h-82.4v318.8c0,4.3,0,8.5-.2,12.7v2.5c-1.8,23.2-15,44.1-35.2,55.6-10.4,5.9-22.2,9-34.1,9-38.4,0-69.5-31.3-69.5-70s31.1-70,69.5-70,14.5,1.1,21.4,3.4v-83.9c-42.3-5.5-85.1,7-117.9,34.5-14.2,12.3-26.2,27.1-35.3,43.5-3.5,6-16.6,30.1-18.2,69.2-1,22.2,5.7,45.2,8.9,54.7v.2c2,5.6,9.8,24.7,22.4,40.8,10.2,12.9,22.2,24.3,35.7,33.7v-.2l.2.2c39.9,27.1,84.2,25.3,84.2,25.3,7.7-.3,33.3,0,62.5-13.8,32.3-15.3,50.7-38.1,50.7-38.1,11.8-13.6,21.1-29.2,27.6-45.9,7.5-19.6,10-43.1,10-52.5v-169.1c1,.6,14.3,9.4,14.3,9.4,0,0,19.2,12.3,49.1,20.3,21.5,5.7,50.4,6.9,50.4,6.9v-81.8c-10.1,1.1-30.7-2.1-51.8-12.6v-.2Z"/>
  </g>
  <g id="threads">
    <path d="M361.3,239.9c-1.9-.9-3.8-1.8-5.8-2.6-3.4-62.6-37.6-98.4-95-98.8h-.8c-34.3,0-62.9,14.7-80.5,41.3l31.6,21.7c13.1-19.9,33.7-24.2,48.9-24.2s.4,0,.5,0c18.9.1,33.2,5.6,42.4,16.3,6.7,7.8,11.2,18.6,13.4,32.2-16.8-2.8-34.9-3.7-54.3-2.6-54.6,3.1-89.7,35-87.3,79.2,1.2,22.4,12.4,41.7,31.5,54.4,16.2,10.7,37,15.9,58.6,14.7,28.5-1.6,50.9-12.5,66.6-32.4,11.9-15.1,19.4-34.7,22.7-59.4,13.6,8.2,23.7,19,29.3,32,9.5,22.1,10,58.4-19.6,87.9-25.9,25.9-57.1,37.1-104.2,37.5-52.3-.4-91.8-17.2-117.5-49.8-24.1-30.6-36.5-74.8-37-131.4.5-56.6,12.9-100.8,37-131.4,25.7-32.7,65.2-49.4,117.5-49.8,52.7.4,92.9,17.2,119.6,50.1,13.1,16.1,23,36.3,29.5,60l37-9.9c-7.9-29.1-20.3-54.1-37.2-74.9-34.2-42.1-84.2-63.7-148.7-64.1h-.3c-64.3.4-113.8,22.1-147.1,64.3-29.6,37.6-44.8,89.9-45.3,155.5v.4c.5,65.6,15.8,117.9,45.3,155.5,33.2,42.3,82.7,63.9,147.1,64.3h.3c57.2-.4,97.5-15.4,130.7-48.6,43.5-43.4,42.1-97.8,27.8-131.2-10.3-24-29.9-43.4-56.7-56.3h0ZM262.5,332.8c-23.9,1.3-48.8-9.4-50-32.4-.9-17.1,12.1-36.1,51.5-38.4,4.5-.3,8.9-.4,13.3-.4,14.3,0,27.7,1.4,39.8,4-4.5,56.6-31.1,65.8-54.5,67.1h0Z"/>
  </g>
  <g id="snapchat" class="icon">
    <path d="M496.8,351.7c-11.1-.8-22-2.6-32.8-5.3-27.3-6.6-54.8-24.3-68.1-52.4-6.9-14.6-2.6-18.6,11.9-24,14.2-5.3,29.8-7.7,36.9-23,5.9-12.8,1.1-27.8-10.4-35.5-15.7-10.5-30.4-.2-46.6,2.1,3.7-46.7,8.7-88.6-22.7-127.7-26-32.5-66.8-49.3-107.8-49.3s-81.9,16.9-107.8,49.3c-31.4,39.3-26.4,81.2-22.7,127.9-16.3-2.2-30.8-12.8-46.6-2.2-14.7,9.9-17,29.8-5.4,43s31.6,9.5,43.5,20.6c6.5,6.1,3.5,12.6-.3,20.1-14.5,28.4-39.3,45.7-69.8,51.6-4,.8-22.3,2.9-31,3.6,0,9.3.5,16.8,1.6,21.7,2.9,13.1,12.3,23.6,23.7,30.1,11.2,6.4,35.5,6.4,41.7,15.5,3,4.5,1.8,12.3,5.3,17.4,3.6,5.2,9.2,8.7,15.4,9.8,18.6,3.6,37.3-7.2,56.4-2.1,14.9,4,26.5,15.9,39.3,24,15.5,9.9,32.3,16.4,50.8,17.5,38.1,2.2,59.9-18.9,90.6-36.4,19.5-11.1,38.1-3.9,58.9-2.7,20.1,1.1,23.5-9.2,29.6-24.9.7-1.6,1.2-3.2,1.5-4.9.8-.4,1.6-.9,2.3-1.5,2-1.6,10.5-2.3,12.8-2.9,10.3-2.4,20.3-5.1,29.2-11.2,11.3-7.8,17.6-18.5,19.6-32.6.9-5.2,1.4-10.4,1.4-15.7h-.4ZM208.8,132.4c8.8,0,16,10.7,16,24s-7.2,24-16,24-16-10.7-16-24,7.2-24,16-24ZM312.5,210.1c-15.2,15-35,23.3-55.6,23.3s-41-8.4-55.7-23.3c-3.1-3.1-3.1-8.2,0-11.3s8.2-3.1,11.3,0c11.7,11.9,27.7,18.6,44.3,18.7,16.4,0,32.1-6.6,44.4-18.7,3.1-3.1,8.2-3.1,11.3,0s3.1,8.2,0,11.3h0ZM304.8,180.4c-8.8,0-16-10.8-16-24s7.2-24,16-24,16,10.8,16,24-7.2,24-16,24Z"/>
  </g>
  <g id="shuffle" class="icon">
    <path fill="none" stroke="currentColor" stroke-linecap="round" stroke-linejoin="round" stroke-width="32" d="M400 304l48 48-48 48M400 112l48 48-48 48M64 352h85.19a80 80 0 0066.56-35.62L256 256"/><path d="M64 160h85.19a80 80 0 0166.56 35.62l80.5 120.76A80 80 0 00362.81 352H416M416 160h-53.19a80 80 0 00-66.56 35.62L288 208" fill="none" stroke="currentColor" stroke-linecap="round" stroke-linejoin="round" stroke-width="32"/>
  </g>
  <g id="search-circle" class="icon">
    <path d="M256.8,68.5c-105.9,0-192,86.1-192,192s86.1,192,192,192,192-86.1,192-192-86.1-192-192-192ZM348.2,351.8c-6.2,6.2-16.4,6.2-22.6,0l-42.8-42.8c-40.1,27.6-94.9,17.4-122.5-22.6-27.6-40.1-17.4-94.9,22.6-122.5,40.1-27.6,94.9-17.4,122.5,22.6,20.7,30.1,20.7,69.8,0,99.9l42.8,42.8c6.2,6.2,6.2,16.4,0,22.6Z"/>
    <circle cx="232.8" cy="236.5" r="56"/>
  </g>
  <g id="search" class="icon">
    <path d="M458,426.3l-94.1-94.1c22.7-30.2,34.9-66.9,34.8-104.6,0-96.3-78.4-174.7-174.7-174.7S49.3,131.3,49.3,227.7s78.4,174.7,174.7,174.7,74.4-12.2,104.6-34.8l94.1,94.1c10.3,9.2,26.1,8.3,35.3-2,8.5-9.5,8.5-23.8,0-33.3h0ZM99.2,227.7c0-68.9,55.9-124.8,124.8-124.8s124.8,55.9,124.8,124.8-55.9,124.8-124.8,124.8-124.7-55.9-124.8-124.8h0Z"/>
  </g>
  <g id="rss" class="icon">
    <path d="M109.4,347.2c-33.3.1-60.2,27.2-60.1,60.6,0,33.3,27.2,60.2,60.6,60.1,33.2-.1,60.1-27,60.1-60.2-.1-33.4-27.2-60.4-60.6-60.4h0Z"/>
    <path d="M48.8,191.1v86.6c52,0,101.9,15.4,138.7,52.1s52,86.6,52,138.7h86.7c0-151.6-125.7-277.3-277.3-277.3h-.1Z"/>
    <path d="M48.8,52.5v86.6c185.3,0,329.2,144.1,329.2,329.4h86.8c0-229.3-186.3-416-416-416h0Z"/>
  </g>
  <g id="reddit" class="icon">
    <path d="M324.9,260.5c-19.9,0-36,16.1-36,36s16.1,36,36,36,36-16.1,36-36-16.1-36-36-36Z"/>
    <circle cx="188.9" cy="296.5" r="36"/>
    <path d="M496.9,258.2c0-31.2-25.1-56.6-56-56.6s-25.6,4.5-35.6,12.9c-35-23.8-80.8-38.3-129.6-41.3l22-79,66.4,13.2c1.9,26.5,24,47.5,50.6,47.5s50.8-23,50.8-51.2-23.6-51.3-51.6-51.3-36.3,11.2-44.9,28.8l-90-17.9-31.1,109.5h-4.6c-50.6,2.3-98.3,17.1-134.8,41.7-10-8.3-22.6-12.9-35.6-12.8-30.9,0-56,25.4-56,56.6s10.6,38.9,28.1,49.1c-.6,4.4-.9,8.9-.9,13.3,0,39.7,22.5,77,63,105,40.1,27.6,93.3,42.8,149.8,42.8s109.8-15.2,149.8-42.9c40.5-28,62.9-65.3,62.9-105.1s-.3-8.9-.8-13.3c17.5-10.1,28.2-28.8,28.2-49h0ZM414.9,79.5c13.3,0,24,10.7,24,24s-10.7,24-24,24-24-10.7-24-24,10.7-24,24-24ZM43.6,258.2c0-16.3,13.1-29.6,29.4-29.7,4.8,0,9.4,1.2,13.6,3.4-15.5,14.4-26.9,30.4-34.1,47.7-5.7-5.7-8.9-13.4-9-21.4h0ZM391.7,403.5c-35.7,24.6-83.6,38.1-134.8,38.1s-99-13.5-134.8-38.1c-33-22.8-51.2-52.3-51.2-83s1.7-18.6,4.9-27.3c5.7-15.7,16.2-30.5,31.2-43.8,4.7-4.1,9.6-8,14.8-11.5l.3-.2h0l.2-.2c35.7-24.5,83.5-38,134.6-38s98.9,13.5,134.6,38l.2.2.3.2c5.1,3.5,10.1,7.4,14.8,11.5,15,13.3,25.5,28.1,31.2,43.8,2.1,5.7,3.5,11.6,4.3,17.7.4,3.2.6,6.4.6,9.6,0,30.7-18.2,60.2-51.2,82.9h0ZM461.3,279.5c-7.1-17.3-18.6-33.3-34.1-47.7,4.2-2.2,8.9-3.4,13.6-3.4,16.3,0,29.5,13.4,29.4,29.7,0,8-3.3,15.7-9,21.4h.1Z"/>
    <path d="M324.1,366.7c-.2.2-25.6,26.1-67.1,26.3-42-.2-66.3-25.2-67.3-26.3h0c-1.6-1.6-4.2-1.6-5.8,0l-13.7,13.5c-1.6,1.6-1.6,4.2,0,5.9h0c3.4,3.4,34.7,34.2,86.8,34.5,51.9-.2,83.4-31,86.8-34.5h0c1.6-1.6,1.6-4.3,0-5.9h0l-13.7-13.5c-1.6-1.6-4.2-1.6-5.8,0h-.2Z"/>
  </g>
  <g id="pinterest" class="icon">
    <path d="M256.9,36.4c-123.7,0-224,100.3-224,224s55.2,170.5,134.1,205.2c-.6-15.6-.1-34.4,3.9-51.4,4.3-18.2,28.8-122.1,28.8-122.1,0,0-7.2-14.3-7.2-35.4,0-33.2,19.2-58,43.2-58s30.2,15.3,30.2,33.6-13.1,51.1-19.8,79.5c-5.6,23.8,11.9,43.1,35.4,43.1,42.4,0,71-54.5,71-119.1s-33.1-85.8-93.2-85.8-110.3,50.7-110.3,107.3,5.8,33.3,14.8,43.9c4.1,4.9,4.7,6.9,3.2,12.5-1.1,4.1-3.5,14-4.6,18-1.5,5.7-6.1,7.7-11.2,5.6-31.3-12.8-45.9-47-45.9-85.6,0-63.6,53.7-139.9,160.1-139.9s141.8,61.9,141.8,128.3-48.9,153.5-120.9,153.5-46.9-13.1-54.7-27.9c0,0-13,51.6-15.8,61.6-4.7,17.3-14,34.5-22.5,48,20.6,6.1,42,9.2,63.5,9.2,123.7,0,224-100.3,224-224S380.6,36.4,256.9,36.4Z"/>
  </g>
  <g id="menu" class="icon">
    <line class="st3" style="stroke-miterlimit: 10;stroke-width: 48px;stroke: currentColor;
      stroke-linecap: round;fill:none;" x1="88.8" y1="156.5" x2="424.8" y2="156.5"/>
    <line class="st3" style="stroke-miterlimit: 10;stroke-width: 48px;stroke: currentColor;
      stroke-linecap: round;fill:none;" x1="88.8" y1="260.5" x2="424.8" y2="260.5"/>
    <line class="st3" style="stroke-miterlimit: 10;stroke-width: 48px;stroke: currentColor;
      stroke-linecap: round;fill:none;" x1="88.8" y1="364.5" x2="424.8" y2="364.5"/>
  </g>
  <g id="mastodon" class="icon">
    <path d="M480.8,178.1c0-104.1-68.3-134.6-68.3-134.6-34.4-15.8-93.5-22.4-154.9-22.9h-1.5c-61.4.5-120.5,7.1-154.9,22.9,0,0-68.3,30.5-68.3,134.6s-.5,52.4.3,82.6c2.5,101.8,18.7,202.2,112.9,227.1,43.4,11.5,80.7,13.9,110.8,12.2,54.5-3,85-19.4,85-19.4l-1.8-39.5s-38.9,12.3-82.6,10.8c-43.3-1.5-89-4.7-96-57.8-.7-4.9-1-9.9-1-14.9,31.7,7.1,63.9,11.4,96.4,12.9,33,1.5,63.8-1.9,95.2-5.7,60.2-7.2,112.6-44.2,119.2-78.1,10.4-53.3,9.6-130.2,9.6-130.2h-.1ZM400.3,312.2h-50v-122.4c0-25.8-10.9-38.9-32.6-38.9s-36.1,15.5-36.1,46.2v67h-49.7v-67c0-30.7-12-46.2-36.1-46.2s-32.6,13.1-32.6,38.9v122.4h-50v-126.1c0-25.8,6.6-46.2,19.8-61.4,13.6-15.2,31.4-22.9,53.5-22.9s44.9,9.8,57.8,29.5l12.5,20.9,12.5-20.8c12.8-19.7,32.2-29.5,57.8-29.5s39.9,7.8,53.5,22.9c13.2,15.1,19.8,35.6,19.7,61.4v126.1h0Z"/>
  </g>
  <g id="mailchimp" class="icon">
    <path d="M381.7,150.1c20.9,22.2,22.2,49.2,20.9,77.6,0,4.9,1.2,7.4,6.2,8.6,6.2,1.2,13.5,3.7,19.7,6.2,13.5,6.2,23.4,14.8,24.6,29.5,1.2,6.2-2.5,13.5-3.7,19.7,0,2.5-1.2,6.2,0,9.8,0,2.5,1.2,4.9,2.5,7.4,1.2,4.9,2.5,8.6,7.4,9.8,8.6,3.7,11.1,12.3,11.1,20.9,0,16-2.5,30.8-9.8,45.6-27.1,59.1-73.9,89.9-137.9,97.3-39.4,4.9-76.3-2.5-110.8-18.5-32-16-55.4-40.6-72.6-72.6-2.5-4.9-4.9-8.6-11.1-9.8-43.1-4.9-70.2-44.3-59.1-86.2,1.2-6.2,1.2-9.8-4.9-13.5-22.2-14.8-25.9-35.7-19.7-60.3,8.6-29.5,23.4-54.2,41.9-78.8,27.1-35.7,59.1-68.9,97.3-93.6,16-9.8,33.2-19.7,54.2-20.9,14.8-1.2,28.3,3.7,38.2,14.8,4.9,4.9,9.8,9.8,14.8,13.5,1.2,1.2,4.9,1.2,7.4,1.2,16-4.9,30.8-11.1,46.8-13.5,12.3-2.5,25.9-1.2,36.9,0,25.9,4.9,36.9,23.4,30.8,49.2-3.7,19.7-14.8,34.5-28.3,49.2-1.2,1.2-2.5,2.5-3.7,3.7.8,1.7,1.2,2.9,1.2,3.7h-.3ZM432.2,345.8c0,1.2,1.2,1.2,1.2,2.5-7.4,6.2-14.8,13.5-23.4,18.5-27.1,16-56.6,22.2-87.4,19.7-12.3-1.2-25.9-3.7-35.7-12.3s-13.5-23.4-8.6-34.5,11.1-13.5,27.1-12.3c27.1,2.5,54.2,1.2,80-7.4,17.2-6.2,34.5-13.5,48-27.1,11.1-12.3,8.6-25.9-6.2-33.2-7.4-3.7-16-6.2-24.6-8.6-11.1-3.7-13.5-6.2-13.5-18.5s-1.2-27.1-2.5-40.6c-1.2-8.6-4.9-17.2-14.8-20.9-8.6-3.7-16,0-23.4,6.2-9.8,7.4-20.9,13.5-33.2,13.5s-18.5-2.5-27.1-2.5-14.8,0-19.7,3.7c-27.1,12.3-36.9,45.6-22.2,71.4,4.9,8.6,12.3,17.2,18.5,25.9,2.5,3.7,4.9,6.2,1.2,9.8-11.1,11.1-17.2,24.6-19.7,39.4-8.6,38.2,4.9,73.9,41.9,92.3,22.2,11.1,44.3,13.5,68.9,9.8,38.2-6.2,70.2-24.6,89.9-59.1,6.2-11.1,11.1-23.4,11.1-36.9s-2.5-9.8-8.6-12.3c-2.5-1.2-3.7-3.7-4.9-4.9-2.5-6.2-3.7-13.5-6.2-19.7-4.9,2.5-7.4,4.9-11.1,7.4-13.5,8.6-28.3,16-44.3,19.7-25.9,6.2-51.7,9.8-77.6,4.9-8.6-1.2-13.5,1.2-16,8.6,22.2,8.6,45.6,9.8,70.2,7.4-23.4,11.1-46.8,6.2-71.4,0,0,11.1,7.4,14.8,16,17.2,22.2,8.6,45.6,6.2,67.7,1.2,20.9-6.2,41.9-14.8,60.3-28.3h.1ZM277,70c.8-.8,1.6-1.6,2.5-2.5-6.2-4.9-11.1-8.6-16-13.5s-11.1-8.6-19.7-7.4c-13.5,1.2-27.1,6.2-39.4,12.3-40.6,22.2-72.6,52.9-101,88.6-18.5,23.4-33.2,48-41.9,76.3-8.6,28.3-2.5,36.9,16,50.5,1.2-1.2,2.5-3.7,4.9-4.9,6.2-7.4,14.8-13.5,24.6-16,6.2-1.2,8.6-4.9,11.1-9.8,9.8-25.9,22.2-49.2,39.4-71.4,25.9-35.7,59.1-62.8,96-87.4,7.4-3.7,16-8.6,23.4-14.8h.1ZM125.6,265.8c-14.8,1.2-27.1,8.6-35.7,22.2-16,28.3-1.2,65.3,30.8,76.3,23.4,7.4,41.9-2.5,48-25.9,3.7-16,2.5-32-4.9-48s-20.9-23.4-38.2-24.6ZM204.4,157.5c20.9-12.3,43.1-22.2,66.5-27.1s48-2.5,71.4,0c-12.3-8.6-27.1-11.1-41.9-13.5,2.5-3.7,4.9-6.2,8.6-9.8-18.5,1.2-34.5,7.4-51.7,17.2,1.2-4.9,2.5-9.8,4.9-14.8-23.4,12.3-41.9,29.5-57.9,48h.1Z"/>
    <path d="M153.9,336h-2.5c-9.8,0-12.3-4.9-8.6-13.5,1.2-2.5,2.5-4.9,2.5-7.4,2.5-8.6,2.5-17.2-4.9-24.6-6.2-6.2-13.5-7.4-22.2-4.9-9.8,3.7-14.8,11.1-16,20.9,0,2.5,1.2,4.9,1.2,8.6h2.5c1.2-2.5,1.2-3.7,2.5-6.2,3.7-8.6,11.1-13.5,18.5-11.1,7.4,2.5,9.8,8.6,7.4,19.7-1.2,6.2-1.2,13.5,1.2,18.5,3.7,8.6,13.5,8.6,18.5,0h0Z"/>
    <path d="M375.5,243.6c-7.4,2.5-11.1-1.2-13.5-7.4-1.2-4.9-3.7-11.1-3.7-16s2.5-7.4,4.9-8.6c3.7-2.5,7.4,1.2,8.6,4.9,3.7,8.6,6.2,18.5,3.7,27.1Z"/>
    <path d="M270.9,253.5c3.7-8.6,14.8-14.8,24.6-13.5,11.1,0,19.7,6.2,22.2,14.8-8.6-2.5-16-4.9-23.4-4.9-6.2-1.2-14.8,2.5-23.4,3.7h0Z"/>
    <path d="M289.3,267c4.9-9.8,20.9-12.3,27.1-3.7-8.6,1.2-17.2,2.5-27.1,3.7Z"/>
    <path d="M381.7,263.3c-3.7,3.7-6.2,6.2-8.6,7.4-1.2-2.5-4.9-4.9-4.9-7.4s3.7-4.9,4.9-7.4c2.5,1.2,4.9,3.7,8.6,7.4Z"/>
    <path d="M358.3,274.4c-2.5,1.2-4.9,3.7-6.2,3.7-3.7,0-8.6-2.5-7.4-7.4,0-1.2,3.7-4.9,4.9-3.7,3.7,1.2,6.2,3.7,9.8,4.9-1.2,0-1.2,1.2-1.2,2.5h.1Z"/>
    <path d="M153.9,336c-4.9,7.4-16,8.6-18.5,0-2.5-6.2-2.5-12.3-1.2-18.5,2.5-9.8,0-17.2-7.4-19.7s-14.8,1.2-18.5,11.1c-1.2,2.5-1.2,3.7-2.5,6.2h-2.5c-1.2-2.5-2.5-6.2-1.2-8.6,2.5-9.8,6.2-17.2,16-20.9,8.6-3.7,16-1.2,22.2,4.9s7.4,16,4.9,24.6c-1.2,2.5-2.5,4.9-2.5,7.4-3.7,8.6,0,13.5,8.6,13.5h2.6Z"/>
  </g>
  <g id="mail" class="icon">
    <path d="M424.8,84.5H88.8c-30.9,0-56,25.1-56,56v240c0,30.9,25.1,56,56,56h336c30.9,0,56-25.1,56-56v-240c0-30.9-25.1-56-56-56ZM410.7,177.1l-144,112c-5.8,4.5-13.9,4.5-19.6,0l-144-112c-7.1-5.3-8.5-15.4-3.1-22.4,5.3-7.1,15.4-8.5,22.4-3.1,0,0,.2.2.4.3l134.2,104.4,134.2-104.4c7.1-5.3,17.1-3.9,22.4,3.1,5.2,6.9,4,16.7-2.8,22.1h-.1Z"/>
  </g>
  <g id="instagram" class="icon">
    <path d="M350.2,73.8c51.5.2,93.2,41.9,93.3,93.3v186.7c-.2,51.5-41.9,93.2-93.3,93.3h-186.7c-51.5-.2-93.2-41.9-93.3-93.3v-186.7c.2-51.5,41.9-93.2,93.3-93.3h186.7M350.2,36.5h-186.7c-71.9,0-130.7,58.8-130.7,130.7v186.7c0,71.9,58.8,130.7,130.7,130.7h186.7c71.9,0,130.7-58.8,130.7-130.7v-186.7c0-71.9-58.8-130.7-130.7-130.7h0Z"/>
    <path d="M378.2,167.1c-15.5,0-28-12.5-28-28s12.5-28,28-28,28,12.5,28,28h0c0,15.4-12.4,28-27.9,28h-.1Z"/>
    <path d="M256.8,185.8c41.2,0,74.7,33.4,74.7,74.7s-33.4,74.7-74.7,74.7-74.7-33.4-74.7-74.7,33.4-74.6,74.7-74.7M256.8,148.5c-61.9,0-112,50.1-112,112s50.1,112,112,112,112-50.1,112-112-50.1-112-112-112Z"/>
  </g>
  <g id="googleplay" class="icon">
    <path d="M48.9,64v393c0,2.4,2,4.3,4.3,4.3s2.2-.5,3-1.2l204.6-199.6L56.2,60.9c-1.7-1.7-4.4-1.7-6.1,0-.8.8-1.2,1.9-1.2,3h0Z"/>
    <path d="M346.7,178.5L90.1,37.1h-.2c-4.4-2.5-8.6,3.5-5,7l201.1,192.3,60.6-57.9h.1Z"/>
    <path d="M84.9,476.9c-3.6,3.5.6,9.5,5,7.1h.2l256.6-141.5-60.6-58-201.1,192.3h0Z"/>
    <path d="M450.2,235.5l-71.6-39.5-67.4,64.5,67.4,64.4,71.7-39.4c19.5-10.8,19.5-39.2,0-50h0Z"/>
  </g>
  <g id="google" class="icon">
    <path d="M474,225.9l-2.3-9.6h-208.4v88.2h124.5c-12.9,61.4-72.9,93.7-121.9,93.7s-73.2-15-98.1-39.1c-26.5-26.1-41.6-61.7-41.8-98.9,0-37.2,16.7-74.3,41-98.8,24.3-24.4,61-38.1,97.5-38.1s71.7,22.2,82.9,32.3l62.7-62.4c-18.4-16.2-68.9-56.9-147.6-56.9h0c-60.8,0-119,23.3-161.6,65.7-42,41.8-63.8,102.2-63.8,158.3s20.6,113.5,61.3,155.6c43.5,44.9,105.1,68.4,168.6,68.4s112.5-22.6,151.5-63.7c38.3-40.4,58.2-96.3,58.2-154.9s-2.5-39.3-2.6-40v.2Z"/>
  </g>
  <g id="github" class="icon">
    <path d="M256.8,36.5c-123.7,0-224,102.9-224,229.7s64.2,187.5,153.2,217.9c1.2.3,2.5.4,3.8.4,8.3,0,11.5-6.1,11.5-11.4s-.2-19.9-.3-39.1c-7.4,1.7-15,2.6-22.6,2.7-43.1,0-52.9-33.5-52.9-33.5-10.2-26.5-24.9-33.6-24.9-33.6-19.5-13.7,0-14.1,1.4-14.1h0c22.5,2,34.3,23.8,34.3,23.8,11.2,19.6,26.2,25.1,39.6,25.1,8.9-.2,17.6-2.2,25.6-6,2-14.8,7.8-24.9,14.2-30.7-49.7-5.8-102-25.5-102-113.5s8.7-45.6,23-61.6c-2.3-5.8-10-29.2,2.2-60.8,1.6-.4,3.3-.6,5-.5,8.1,0,26.4,3.1,56.6,24.1,36.7-10.3,75.5-10.3,112.2,0,30.2-21,48.5-24.1,56.6-24.1s3.4.1,5,.5c12.2,31.6,4.5,55,2.2,60.8,14.3,16.1,23,36.6,23,61.6,0,88.2-52.4,107.6-102.3,113.3,8,7.1,15.2,21.1,15.2,42.5,0,30.7-.3,55.5-.3,63s3.1,11.5,11.4,11.5,2.7-.1,4-.4c89.1-30.4,153.2-116.5,153.2-217.9S380.5,36.5,256.8,36.5Z"/>
  </g>
  <g id="facebook" class="icon">
    <path style="fill-rule: evenodd;" d="M480.8,261.8c0-123.7-100.3-224-224-224S32.8,138.1,32.8,261.8s81.9,204.5,189,221.3v-156.5h-56.9v-64.8h56.9v-49.4c0-56.1,33.4-87.2,84.6-87.2s50.1,4.4,50.1,4.4v55.1h-28.3c-27.8,0-36.5,17.3-36.5,35v42h62.1l-9.9,64.8h-52.2v156.5c107.1-16.8,189-109.5,189-221.3h0Z"/>
  </g>
  <g id="close" class="icon">
    <path d="M290.8,260.5l95-95c9.4-9.4,9.4-24.6,0-34s-24.6-9.4-34,0l-95,95-95-95c-9.4-9.4-24.6-9.4-34,0-9.4,9.4-9.4,24.6,0,34l95,95-95,95c-9.4,9.4-9.4,24.6,0,34,9.4,9.4,24.6,9.4,34,0l95-95,95,95c9.4,9.4,24.6,9.4,34,0s9.4-24.6,0-34l-95.1-95h.1Z"/>
  </g>
  <g id="bluesky" class="icon">
    <path d="M127.4,80.1c53.2,38.8,108.7,119.8,129.7,163,21.1-42.1,78.7-123.1,129.7-163,37.7-28.8,98.7-51,98.7,21.1s-7.8,118.6-12.2,135.3c-16.6,58.8-75.4,73.2-129.7,64.3,93.1,15.5,117.5,68.7,64.3,120.9-96.5,98.7-138.6-24.4-149.7-56.5-2.2-5.5-2.2-7.8-2.2-5.5,0-2.2,0,0-2.2,5.5-11.1,32.2-53.2,155.2-149.7,56.5-51-52.1-27.7-104.2,64.3-120.9-53.2,10-113.1-5.5-129.7-64.3-4.4-16.6-12.2-120.9-12.2-135.3,0-69.9,62.1-48.8,98.7-21.1h2.2Z"/>
  </g>
  <g id="appstore" class="icon">
    <path d="M256.8,36.5c-123.7,0-224,100.3-224,224s100.3,224,224,224,224-100.3,224-224S380.6,36.5,256.8,36.5ZM171.8,358.4c-2.8,4.8-7.9,7.7-13.5,7.6-2.8,0-5.5-.7-7.9-2.2-7.4-4.3-9.9-13.8-5.6-21.2h0l15.3-25.4c1.6-2.7,4.4-4.3,7.5-4.3h2.3c11.1,0,18.9,6.7,21.1,13.1l-19.3,32.3h0ZM301.3,308.4h-100.1c0,.1-66.6.1-66.6.1-8.5,0-15.5-6.9-15.5-15.4v-.8c.3-8.4,7.7-14.8,16-14.8h48.2l57.2-97.4h0l-18.5-31.6c-4.2-7.2-2.3-16.7,4.8-21.2,7.2-4.7,16.9-2.6,21.5,4.6.1.2.2.4.3.6l9.9,16.9h.1l9.9-16.9c4.4-7.4,13.9-9.8,21.3-5.5.2,0,.3.2.5.3,7.1,4.5,8.9,14,4.7,21.2l-18.5,31.6-18,30.7-39.1,66.7h0c0,.1,57.6.1,57.6.1,7.2,0,16.3,3.9,19.9,10.1l.3.6c3.2,5.5,5.1,9.3,5.1,14.8s-.5,3.5-1.2,5.2h.2ZM379,308.5h-27.1c0,.1,19.8,33.8,19.8,33.8,4.4,7.4,2.1,17-5.2,21.5-2.4,1.5-5.2,2.3-8.1,2.3-5.5,0-10.6-2.9-13.5-7.6l-29.3-49.9-18.2-31-23.5-40.1c-6.9-11.7-7.2-26.1-.6-38,4.6-8.2,8.2-10.3,8.2-10.3l52.2,88.3h44.9c8.4,0,15.6,6.5,16,14.8.3,8.6-6.4,15.9-15,16.2h-.6,0Z"/>
  </g>
  <g id="apple" class="icon">
    <path d="M350,141.3c-40.3,0-57.4,19.2-85.4,19.2s-50.8-19.1-85.7-19.1-70.7,20.9-93.8,56.4c-32.5,50.2-27,144.6,25.7,225.1,18.8,28.8,44,61.1,77,61.5h.6c28.7,0,37.2-18.8,76.7-19h.6c38.9,0,46.7,18.9,75.2,18.9h.6c33-.4,59.5-36.1,78.4-64.9,13.6-20.6,18.6-31,29-54.4-76.2-28.9-88.4-136.9-13.1-178.3-23-28.8-55.3-45.5-85.8-45.5h.1-.1Z"/>
    <path d="M341.2,36.4c-24,1.6-52,16.9-68.4,36.9-14.9,18.1-27.1,44.9-22.3,70.9h1.9c25.6,0,51.7-15.4,67-35.1,14.7-18.8,25.9-45.4,21.8-72.7h0Z"/>
  </g>
  <g id="android" class="icon">
    <path id="path80319" d="M375.5,201.4l40.6-70.4c2.3-3.9.9-9-3-11.3s-8.9-1-11.2,2.9h0l-41.1,71.3c-31.4-14.4-66.8-22.3-104.8-22.3s-73.4,8-104.8,22.3l-41.1-71.3c-2.3-3.9-7.3-5.3-11.3-3-3.9,2.3-5.3,7.3-3,11.3l40.5,70.4c-70,37.9-117.5,108.8-125.3,191.9h489.8c-7.8-83-55.3-153.9-125.4-191.9h.1ZM143.5,324.5c-11.3,0-20.5-9.2-20.5-20.5s9.2-20.5,20.5-20.5,20.5,9.2,20.5,20.5-9.2,20.5-20.5,20.5ZM368.4,324.5c-11.3,0-20.5-9.3-20.4-20.6,0-11.3,9.3-20.5,20.6-20.4,11.3,0,20.4,9.2,20.4,20.5s-9.2,20.5-20.5,20.5h-.1Z"/>
  </g>
  <g id="add-circle" class="icon">
    <path d="M256.8,52.5c-114.7,0-208,93.3-208,208s93.3,208,208,208,208-93.3,208-208S371.5,52.5,256.8,52.5ZM336.8,276.5h-64v64c0,8.8-7.2,16-16,16s-16-7.2-16-16v-64h-64c-8.8,0-16-7.2-16-16s7.2-16,16-16h64v-64c0-8.8,7.2-16,16-16s16,7.2,16,16v64h64c8.8,0,16,7.2,16,16s-7.2,16-16,16Z"/>
  </g>
  <g id="information-circle" class="icon">
    <path d="M248 64C146.39 64 64 146.39 64 248s82.39 184 184 184 184-82.39 184-184S349.61 64 248 64z" fill="none" stroke="currentColor" stroke-miterlimit="10" stroke-width="32"/>
    <path fill="none" stroke="currentColor" stroke-linecap="round" stroke-linejoin="round" stroke-width="32" d="M220 220h32v116"/><path fill="none" stroke="currentColor" stroke-linecap="round" stroke-miterlimit="10" stroke-width="32" d="M208 340h88"/>
    <path d="M248 130a26 26 0 1026 26 26 26 0 00-26-26z"/>
  </g>
</svg>